<svg width="30" height="30" viewBox="0 0 30 30" fill="none" xmlns="http://www.w3.org/2000/svg">
<path d="M15.9476 27.1943L14.6113 25.8579L11.422 22.6686L7.54795 18.7946L4.21751 15.4641C3.67695 14.9236 3.1454 14.377 2.59583 13.8425L2.5718 13.8184V15.9416L3.90819 14.6053L7.09748 11.416L10.9715 7.54195L14.3019 4.21151C14.8425 3.67095 15.3891 3.1364 15.9236 2.58983L15.9476 2.56581C16.2209 2.29252 16.3861 1.89011 16.3861 1.50271C16.3861 1.13332 16.2239 0.694871 15.9476 0.439607C15.6623 0.178337 15.287 -0.0168653 14.8845 0.00115338C14.4851 0.019172 14.1097 0.154312 13.8214 0.439607L12.4851 1.77599L9.29576 4.96529L5.42175 8.83929L2.09131 12.1697C1.55075 12.7103 1.00418 13.2448 0.469631 13.7914L0.445606 13.8154C-0.127987 14.389 -0.127987 15.365 0.445606 15.9386C0.893069 16.3891 1.34053 16.8336 1.78499 17.281L4.97429 20.4703L8.84829 24.3443L12.1787 27.6748C12.7193 28.2153 13.2538 28.7619 13.8004 29.2964L13.8244 29.3205C14.0977 29.5938 14.5001 29.7589 14.8875 29.7589C15.2569 29.7589 15.6954 29.5968 15.9506 29.3205C16.2119 29.0352 16.4071 28.6598 16.3891 28.2574C16.3681 27.858 16.2359 27.4826 15.9476 27.1943Z" fill="black"/>
<path d="M1.50271 16.3831H27.1252C27.4706 16.3831 27.8189 16.3861 28.1643 16.3831H28.2093C28.5937 16.3831 28.9991 16.2149 29.2724 15.9446C29.5337 15.6834 29.7289 15.2569 29.7109 14.8815C29.6929 14.4941 29.5667 14.0917 29.2724 13.8185C28.9781 13.5482 28.6177 13.38 28.2093 13.38H2.58683C2.24147 13.38 1.89311 13.377 1.54775 13.38H1.50271C1.11831 13.38 0.712889 13.5482 0.439607 13.8185C0.178337 14.0797 -0.0168653 14.5062 0.00115338 14.8815C0.019172 15.2689 0.145302 15.6714 0.439607 15.9446C0.736914 16.2119 1.09729 16.3831 1.50271 16.3831Z" fill="black"/>
</svg>
